<svg xmlns="http://www.w3.org/2000/svg" viewBox="0 0 20 27"><g id="Objects"><path fill="#20188A" d="M10,0C9.33.08,8.68.13,8,.24A9.87,9.87,0,0,0,0,10.33,15.26,15.26,0,0,0,1.57,16,40,40,0,0,0,9.43,26.71c.4.4.77.39,1.2-.05a42.34,42.34,0,0,0,6.83-8.79A17.65,17.65,0,0,0,20,10.64,10,10,0,0,0,10,0Zm2,11.16c-.84.82-1.67,1.66-2.52,2.47a1.24,1.24,0,0,1-2,0c-1-.93-1.93-1.87-2.88-2.83a1.12,1.12,0,0,1-.1-1.73,1.19,1.19,0,0,1,1.77.1c.72.7,1.41,1.42,2.17,2.19,1.83-1.8,3.54-3.52,5.3-5.18a1.75,1.75,0,0,1,1.21-.5,1.31,1.31,0,0,1,.9.8,1.59,1.59,0,0,1-.37,1.22C14.31,8.89,13.11,10,11.94,11.16Z"/></g></svg>