<svg xmlns="http://www.w3.org/2000/svg" viewBox="0 0 20 27"><g id="Objects"><path fill='#b91c1c' d="M19.91,8.55A9.94,9.94,0,0,0,8.6.09C3.75.71,0,5,0,9a15.32,15.32,0,0,0,1.53,6.83A39.57,39.57,0,0,0,9.43,26.7a.7.7,0,0,0,1.16,0c1.24-1.37,2.5-2.71,3.66-4.14a29.22,29.22,0,0,0,4.84-8.19A11.64,11.64,0,0,0,19.91,8.55Zm-13.86-1c-.67-.66-.74-1.33-.22-1.85s1.22-.45,1.87.2,1.47,1.49,2.35,2.37c.88-.91,1.66-1.78,2.49-2.59a1.16,1.16,0,0,1,1.66,0,1.14,1.14,0,0,1,0,1.58c-.16.19-.34.35-.51.52l-2.1,2c.79.75,1.52,1.42,2.24,2.11a2.75,2.75,0,0,1,.53.6A1.07,1.07,0,0,1,14.1,14a1.11,1.11,0,0,1-1.59-.06c-.83-.8-1.61-1.63-2.52-2.57L7.57,13.86a1,1,0,0,1-1.33.3,1.56,1.56,0,0,1-.71-.9A1.56,1.56,0,0,1,6,12.18c.74-.8,1.56-1.53,2.44-2.37C7.56,9,6.8,8.3,6.05,7.57Z"/></g></svg>